<svg xmlns="http://www.w3.org/2000/svg" xmlns:xlink="http://www.w3.org/1999/xlink" viewBox="0 0 20.52 27.48"><defs><linearGradient id="a" x1="15.98" y1="1.66" x2="15.98" y2="26.1" gradientUnits="userSpaceOnUse"><stop offset="0" stop-color="#ff620b"/><stop offset="0.24" stop-color="#ff6610" stop-opacity="0.99"/><stop offset="0.47" stop-color="#ff741e" stop-opacity="0.94"/><stop offset="0.68" stop-color="#ff8b35" stop-opacity="0.87"/><stop offset="0.89" stop-color="#ffaa56" stop-opacity="0.77"/><stop offset="1" stop-color="#ffc06c" stop-opacity="0.7"/></linearGradient></defs><title>fire</title><path d="M19.05,11.35c-2.39-4.59-2.06-7.09,1.76-9a.21.21,0,0,0-.06-.4C16.5,1.32,11.57,5.14,11,8.37a.25.25,0,0,1-.44.11A5.23,5.23,0,0,0,6.83,6.71.18.18,0,0,0,6.72,7c2.89,2.22,1.72,4.66-.49,11.3-2,6,2.36,9.34,5.06,10.79a.22.22,0,0,0,.24-.36A6.62,6.62,0,0,1,9,24c0-2.33.67-3.67,3-6s.57-4.49-.41-5.47a.28.28,0,0,1,.24-.47c3.41.51,4.89,4.12,4.89,6.28,0,2.34-1.16,7,1.17,4.67.89-.89.42-3.83.14-5.16a.15.15,0,0,1,.27-.11c.92,1.31,3.08,4.7,3.08,7.6a5.73,5.73,0,0,1-1.11,3.58.25.25,0,0,0,.32.38c11-5.69,2.93-17.89.86-20.71a.21.21,0,0,0-.38.15C21.23,10.77,21.47,16,19.05,11.35Z" transform="translate(-5.72 -1.84)" style="fill:url(#a)"/></svg>