<?xml version="1.0" encoding="utf-8"?>
<!-- Generator: Adobe Illustrator 24.0.3, SVG Export Plug-In . SVG Version: 6.00 Build 0)  -->
<svg version="1.1" xmlns="http://www.w3.org/2000/svg" xmlns:xlink="http://www.w3.org/1999/xlink" x="0px" y="0px"
	 viewBox="0 0 576 576" style="enable-background:new 0 0 576 576;" xml:space="preserve">
<style type="text/css">
	.st0{fill:#BF8B51;}
	.st1{fill:url(#SVGID_1_);}
	.st2{fill:url(#SVGID_2_);}
	.st3{opacity:0.8;fill:#FF4D4D;}
	.st4{opacity:0.89;fill:#F43838;}
	.st5{opacity:0.75;fill:#FF0B0B;}
	.st6{fill:#AA7D46;}
	.st7{fill:#9B692D;}
	.st8{fill:#FF0B0B;}
	.st9{fill:#A38C6D;}
	.st10{fill:#D30909;}
	.st11{opacity:0.61;fill:#D30909;}
	.st12{opacity:0.6;fill:#F43838;}
	.st13{opacity:0.7;fill:#FF4D4D;}
</style>
<g id="Layer_1">
	<g>
		<path class="st0" d="M197.1,280.6l5.7-10.3c0,0,17-7.9,17.7-7.5c0.7,0.4,13.5-15.4,13.5-15.4l0-12.1l58.1-19.3l12.2,4.4l18.2,14
			c0,0,18.6,10,19,10.8c0.4,0.7,12.1,5,12.1,5l9.2,18.6l-93.3,53.9L197.1,280.6z"/>
	</g>
	<g id="block">
		<linearGradient id="SVGID_1_" gradientUnits="userSpaceOnUse" x1="247.3181" y1="277.9338" x2="251.8336" y2="242.9699">
			<stop  offset="6.566426e-02" style="stop-color:#8C6239;stop-opacity:0.3"/>
			<stop  offset="0.5228" style="stop-color:#8C6239"/>
		</linearGradient>
		<path class="st1" d="M235.2,277c0,0,1.2,2,2.7,1.7s26.1-2.4,26.1-2.4s3.8-9.2,1.7-14.1c-0.1-0.3-5.9-13.9-5.9-13.9l-15.4,1.7
			l-13.6,19.3L235.2,277z"/>
		<linearGradient id="SVGID_2_" gradientUnits="userSpaceOnUse" x1="292.4216" y1="260.6789" x2="294.8456" y2="227.8661">
			<stop  offset="0.1943" style="stop-color:#8C6239;stop-opacity:0.3"/>
			<stop  offset="0.2551" style="stop-color:#8C6239;stop-opacity:0.4007"/>
			<stop  offset="0.6163" style="stop-color:#8C6239"/>
		</linearGradient>
		<path class="st2" d="M277.2,255.3l20.2,8.2c0,0,9.4-5.1,10-6.1c0.6-1,4.5-8,4.5-8l-2.6-6l-26.9-6.1l-7.5,11.4L277.2,255.3z"/>
		<polygon class="st3" points="197.1,280.6 269.5,322.5 269.5,298.6 196.9,256.7 		"/>
		<polygon class="st4" points="362.8,268.7 269.5,322.5 269.5,298.6 362.8,244.7 		"/>
		<polygon class="st5" points="196.9,256.7 290.3,202.9 362.8,244.7 269.5,298.6 		"/>
	</g>
	<g>
		<polygon class="st0" points="197.1,280.6 199.9,303 205.8,330.8 217.7,346.4 222.4,373.7 228.1,376.9 236,413.7 243.4,406.3 
			243.4,377.8 269.5,322.5 		"/>
	</g>
	<g>
		<polygon class="st6" points="362.8,268.7 358.7,298.7 343.5,323.9 340,346.5 331.7,397.9 319.2,405.2 302.9,437.5 296.6,433.8 
			291.4,383 269.5,322.5 		"/>
	</g>
	<g>
		<polygon class="st6" points="269.6,375.3 277.2,382.3 281.8,403.6 290.2,424.2 296.6,433.8 291.4,383 269.5,322.5 		"/>
	</g>
	<g>
		<polygon class="st0" points="243.4,397.5 262.3,378.2 269.6,375.3 269.5,322.5 243.4,377.8 		"/>
	</g>
	<g>
		<polygon class="st6" points="243.4,406.3 243.4,377.8 255.4,352.4 252.4,388.3 		"/>
	</g>
	<g>
		<path class="st0" d="M302.9,437.5l-11.5-55.8c0,0-8.4-3.5-8.4-5.3s-5.5-20.4-5.5-20.4l-0.3,32.3l2.6,17.9l12,6l3.4,20.2
			L302.9,437.5z"/>
	</g>
	<g>
		<polygon class="st0" points="290.1,310.6 296.6,350.1 305.6,366.9 303.6,327.1 303.6,308.4 308.8,299.9 		"/>
	</g>
	<g>
		<polygon class="st0" points="321.4,403.9 321.3,352.4 316.2,341.7 316.2,370.4 		"/>
	</g>
	<g>
		<polygon class="st0" points="311.4,420.7 306.6,377 309.1,382.2 312.4,396.8 316.2,410.3 		"/>
	</g>
	<g>
		<polygon class="st6" points="255.1,345.9 260.9,372.8 258.9,381.8 252.1,388.8 252.1,381.7 		"/>
	</g>
	<g>
		<path class="st6" d="M265.3,377c0,0-0.2-32.2,1.2-34.7c1.4-2.5,2.9-16.7,2.9-16.7h4.2l-4.1,49.7L265.3,377z"/>
	</g>
	<g>
		<polygon class="st6" points="210.9,337.5 209.7,308.9 212.3,295 217.7,346.4 		"/>
	</g>
	<g>
		<polygon class="st6" points="228.1,376.9 225.7,364.4 226.9,348.4 231.8,376.9 231.4,392.4 		"/>
	</g>
	<g>
		<polygon class="st0" points="343.5,323.9 346.2,295 348.5,315.6 		"/>
	</g>
	<g>
		<polygon class="st7" points="336.9,365.8 337.7,320.7 346.2,295 343.5,323.9 		"/>
	</g>
	<g>
		<polygon class="st7" points="329.2,397.9 336.2,370.4 331.7,397.9 327.7,400.3 		"/>
	</g>
	<g>
		<polygon class="st7" points="316.2,341.7 316.2,356.9 311.3,363.2 305.6,366.9 		"/>
	</g>
	<g>
		<polygon class="st7" points="277.2,382.3 269.6,375.3 273.4,372.6 277.2,370.4 		"/>
	</g>
	<g>
		<polygon class="st7" points="217.7,346.4 215.7,327.4 219.9,341.7 219.9,361 		"/>
	</g>
	<g>
		<polygon class="st6" points="358.7,298.7 357.8,313.7 355.2,330.4 351.1,323.3 348.5,315.6 		"/>
	</g>
	<g>
		<polygon class="st0" points="355.2,330.4 348.5,324.8 344.3,322.5 348.5,315.6 351.1,323.3 		"/>
	</g>
	<g>
		<polygon class="st6" points="245.9,309.6 247.1,322.8 244.9,347.2 235.3,358 231.8,362.4 230.4,351 226.6,326.6 226.6,297.8 		"/>
	</g>
	<g>
		<polygon class="st0" points="232.2,300.8 239.3,304.9 242.4,318.7 239.7,345.7 233.7,347.7 230.8,355.6 225.6,324.9 225.6,297 		
			"/>
	</g>
</g>
<g id="Layer_2">
	<g>
		<path class="st0" d="M317.8,247.3c0,0,5.4,1,5.9,1.3c0.5,0.3,5.4,9.2,5.4,9.2l1.2,7.6l-13-12.9l3-2.8L317.8,247.3z"/>
		<g>
			<path class="st6" d="M308.5,300.4c0,0,6.7-25,6.7-27c0-2,2.1-13.1,2.1-13.1v-7.8l4.8-1.5c0,0,8,14,8.9,15.6
				c0.9,1.5,4.2,19.2,4.2,19.2L308.5,300.4z"/>
		</g>
		<polygon class="st0" points="320.9,276.8 317.3,252.5 313.6,251.8 309.9,265.8 308.5,281.1 289.1,311.6 308.5,300.4 		"/>
		<polygon class="st0" points="313.6,251.8 317.8,247.3 323.7,248.6 317.3,252.5 		"/>
		<g>
			<polygon class="st6" points="318.3,255.3 314.8,269.8 314,276.7 318.2,268.4 320.9,258.5 319,255.3 			"/>
		</g>
	</g>
	<g>
		<polygon class="st8" points="257.8,185.8 264.9,220.1 270.1,218.2 276.5,183.1 		"/>
		<ellipse class="st8" cx="268.7" cy="185" rx="12.3" ry="7.3"/>
		<g>
			<polygon class="st6" points="275.3,239.7 268.7,192.3 269.6,187.5 275.3,189 278.9,189 290.1,220.9 283,226.9 			"/>
		</g>
		<g>
			<polygon class="st0" points="296.6,222.5 290.1,220.9 278.9,189 			"/>
		</g>
		<g>
			<polygon class="st0" points="256.5,183.5 252.9,208.9 243.4,216.3 234,235.4 248.8,232.8 257.6,217.6 			"/>
		</g>
		<g>
			<polygon class="st0" points="268.7,192.3 264.9,200.3 265.3,213.6 265.3,232.9 270.4,238.2 275.3,239.7 			"/>
		</g>
		<g>
			<polygon class="st6" points="264.1,187.5 262.7,200.3 265.3,216 265.5,233 260.2,235.4 254.1,235.4 260.9,216 259.1,189.6 			"/>
		</g>
		<g>
			<polygon class="st0" points="248.8,232.8 254.1,235.4 260.9,216 259.3,189.6 256.5,183.5 256.5,217.2 			"/>
		</g>
		<g>
			<polygon class="st6" points="277.4,179.1 284.3,185 284.3,191 286.5,203.3 278.9,189 280.7,186 277,179.7 			"/>
		</g>
		<g>
			<polygon class="st6" points="296.6,222.5 304.4,220.4 301.2,212.7 297.9,206.9 288.7,200.9 284.3,191 286.5,203.3 			"/>
		</g>
		<g>
			<polygon class="st0" points="277.7,203 281.7,207.9 285.6,218.4 288,226.9 285.1,228.5 281,230.3 275.3,201.6 			"/>
		</g>
		<polygon class="st8" points="278.9,188.6 279.4,192 281.1,195.2 283,200.5 281.4,193.7 280.1,191.2 279.9,187.3 		"/>
		<g>
			<polygon class="st0" points="256.5,183.5 258.5,179.5 266.1,177.1 271.2,177.1 268.2,178.3 259.8,180 257.1,184.8 			"/>
		</g>
		<g>
			<polygon class="st9" points="280.7,186 278.9,180.4 274.2,176.4 267.2,177.7 273.9,179 278.1,180.7 			"/>
		</g>
		<polygon class="st10" points="269.2,190.3 271.2,194.7 274.8,200.5 276,203.3 277,215.5 278.9,223.6 280.7,229.6 280.4,232.1 
			281.7,230.3 279.9,224.7 277.4,214.5 276.7,203.3 275.5,199.6 273.2,193.9 270.8,191.8 269.6,187.5 		"/>
		<path class="st10" d="M257.6,186c0,0,1-3.5,1.7-3.9c0.7-0.4,6.9-2.1,7.3-2.1s6.1,0,6.1,0l3-0.3l-1.8-0.7l-5.1-1l-9.4,1.8l-2.6,4.7
			L257.6,186z"/>
		<polygon class="st10" points="264.9,187.5 262.7,200.3 265.2,215.2 265.5,233.7 264.6,233.7 264.9,222.5 263.4,208.9 262,198.6 
			264.1,187.5 		"/>
		<path class="st11" d="M234,235.4c0,0,6.6,0,7,0c0.5,0,6.9-1.3,6.9-1.3l5.6,2.6h3.5l7.9-2.2l3.8,2.8l2.4,3l5.4,2.3l5.6-11l8-3.8
			l-2.1-3.7l2.2-2.4l8.9,2.8l5.3-4.2l-8.8,1.9l-5.5-1.4l-3.1,2.6l0.9,3.4l-7,3.5l-5.7,9.4l-4.9-1.5l-5.1-5.2l-6.9,2.1l-4.6-0.5
			l-5-1.8L234,235.4z"/>
	</g>
	<g>
		<polygon class="st11" points="279.5,241.3 284.5,246.3 292.7,250.5 294.5,252.5 303.2,250.9 310.4,243.5 		"/>
		<path class="st0" d="M279.5,241.3c0.8-1.3,9-12.4,9-12.4l8.9-3.2l7,5.1l2.9,9l-10,5.6l-3.7,5.1L279.5,241.3z"/>
		<g>
			<polygon class="st6" points="301.8,248.8 293.7,250.5 293.4,234.2 295.9,228 297.4,225.7 299.1,233.4 304.4,239.8 309.2,243.5 
							"/>
		</g>
		<polygon class="st0" points="301.3,228.6 299.1,233.4 300.2,241.3 301.8,248.8 		"/>
		<g>
			<path class="st6" d="M301.3,228.6c1.6,0.9,3.1,2.3,3.1,2.3l4.8,12.6l-4.8-3.6L301.3,228.6z"/>
		</g>
	</g>
	<g>
		<path class="st11" d="M238.5,259.3l5.6,6.2c0,0,4.4,0.9,5,0.9s6.4-4.6,6.4-4.6l5.4-0.3l1.5-9.1l-3.8,6.5l-3.7,0.8l-6,4.1l-3,0.2
			L238.5,259.3"/>
		<path class="st0" d="M241,252.6c0,0,5-5.7,6.1-6.3c1.1-0.6,8.2-1.5,8.2-1.5l4.4,2.6l-6.6,7.9L241,252.6z"/>
		<path class="st0" d="M245.8,264.5l-7.4-4.7c0,0,1.8-7.2,2.6-7.2c0.8,0,3.3,0.8,4,0c0.8-0.8,3.1-2.2,3.1-2.2l1.4,2.5L245.8,264.5z"
			/>
		<g>
			<polygon class="st6" points="248.8,264.4 254.8,260.3 252.3,252.8 251.8,248.2 249.6,252.9 245.8,264.5 			"/>
		</g>
		<polygon class="st0" points="254.8,260.3 252.3,252.8 253.1,247.4 256.5,250 258.5,255.3 258.5,259.4 		"/>
		<g>
			<polygon class="st6" points="255.3,244.9 253.1,247.4 258.5,259.4 260,256.4 262.3,252.9 259.8,247.4 			"/>
		</g>
	</g>
</g>
<g id="top_lava">
	<path class="st12" d="M308.5,281.1c0,0,2.4,10.1,2.4,11.5c0,1.4,0.9,12,0.9,12v28.8c0,0.6-0.5,1.1-1.1,1.1l0,0
		c-0.6,0-1.1-0.5-1.1-1.1v-28.8l-3.2-3.2v-10.6l-3.4-1.1L308.5,281.1z"/>
	<path class="st12" d="M256.6,339.3c0,0,5.3,31.1,5.2,31.4c-0.1,0.3-1.6,11.5-1.8,12.4c0,0,0,0.1,0,0.1v15.1c0,0.6-0.5,1-1,1h0
		c-0.6,0-1-0.5-1-1V383c0-0.1,0-0.1,0-0.2l2.1-13.4c0-0.1,0-0.3,0-0.4c-0.5-2.1-4.8-21.4-4.8-21.9c0-0.5,0.7-11.8,0.7-11.8
		L256.6,339.3z"/>
	<path class="st13" d="M243.7,307.8l1.4,16.1l-2.2,23.6l-6.8,6.8v72.2c0,0.6,0.5,1.1,1.1,1.1l0,0c0.6,0,1.1-0.5,1.1-1.1v-70.6
		l10-10.4v-21.6l0.4-13.2L243.7,307.8z"/>
</g>
</svg>
