<?xml version="1.0" encoding="utf-8"?>
<!-- Generator: Adobe Illustrator 24.0.3, SVG Export Plug-In . SVG Version: 6.00 Build 0)  -->
<svg version="1.1" xmlns="http://www.w3.org/2000/svg" xmlns:xlink="http://www.w3.org/1999/xlink" x="0px" y="0px"
	 viewBox="0 0 576 576" style="enable-background:new 0 0 576 576;" xml:space="preserve">
<style type="text/css">
	.st0{fill:#E6F2FF;}
	.st1{fill:#DCEAFF;}
	.st2{fill:#FAF8FF;}
	.st3{fill:#BBDBFC;}
	.st4{fill:#ACCDEA;}
	.st5{fill:#9AC1E8;}
	.st6{fill:#CCDFED;}
	.st7{fill:#A4CDFF;}
	.st8{opacity:0.45;fill:#A6B7BF;}
	.st9{fill:#848B91;}
	.st10{fill:#869AA8;}
	.st11{opacity:0.38;fill:#869AA8;}
	.st12{opacity:0.46;fill:#DCEAFF;}
	.st13{opacity:0.17;}
	.st14{fill:#90C9FC;}
	.st15{opacity:0.25;fill:#ACCDEA;}
	.st16{opacity:0.11;fill:#9AC1E8;}
	.st17{opacity:8.000000e-02;fill:#83A8C6;}
	.st18{fill:#E1F5FF;}
	.st19{fill:#061626;}
	.st20{fill:#BFCDD1;}
	.st21{opacity:0.11;fill:#E6F2FF;}
	.st22{opacity:0.32;fill:#BFD0DB;}
	.st23{fill:#FFFFFF;}
	.st24{fill:#FF8939;}
	.st25{fill:#DD6617;}
	.st26{fill:#BFD0DB;}
	.st27{fill:#F5FAFF;}
	.st28{fill:url(#SVGID_1_);}
	.st29{opacity:0.5;fill:#FAFDFF;}
	.st30{opacity:0.29;fill:#FAFDFF;}
	.st31{opacity:0.54;fill:#FAFDFF;}
	.st32{opacity:0.17;fill:#FAFDFF;}
	.st33{fill:url(#SVGID_2_);}
	.st34{opacity:0.58;}
</style>
<g id="Layer_1">
	<g>
		<g>
			<polygon class="st0" points="196.9,256.7 197.1,280.6 223,295.6 219.9,270 			"/>
			<polygon class="st1" points="362.8,244.7 317.3,271 312.4,297.8 362.8,268.7 			"/>
			<path class="st2" d="M219.9,268.8c0,0,50-28.8,97.4,2.3l0,0l45.5-26.3l-72.5-41.8l-93.4,53.8l23,13.3V268.8z"/>
			<g>
				<polygon class="st3" points="219.9,270 223,295.6 269.5,322.5 269.5,298.6 				"/>
			</g>
			<polygon class="st4" points="269.5,298.6 269.5,322.5 312.4,297.8 317.3,271 			"/>
			<path class="st5" d="M219.9,268.8v1.2l49.6,28.7l47.8-27.6l0,0C269.9,239.9,219.9,268.8,219.9,268.8z"/>
		</g>
		<polygon class="st0" points="197.1,280.6 199.9,303 205.8,330.8 217.7,346.4 222.4,373.7 228.1,376.9 236,413.7 243.4,406.3 
			243.4,377.8 269.5,322.5 		"/>
		<polygon class="st1" points="362.8,268.7 358.7,298.7 343.5,323.9 340,346.5 331.7,397.9 319.2,405.2 302.9,437.5 296.6,433.8 
			291.4,383 269.5,322.5 		"/>
		<polygon class="st1" points="269.6,375.3 277.2,382.3 281.8,403.6 290.2,424.2 296.6,433.8 291.4,383 269.5,322.5 		"/>
		<polygon class="st0" points="243.4,397.5 262.3,378.2 269.6,375.3 269.5,322.5 243.4,377.8 		"/>
		<polygon class="st1" points="243.4,406.3 243.4,377.8 255.4,352.4 252.4,388.3 		"/>
		<path class="st0" d="M302.9,437.5l-11.5-55.8c0,0-8.4-3.5-8.4-5.3s-5.5-20.4-5.5-20.4l-0.3,32.3l2.6,17.9l12,6l3.4,20.2
			L302.9,437.5z"/>
		<polygon class="st0" points="290.1,310.6 296.6,350.1 305.6,366.9 303.6,327.1 303.6,308.4 308.8,299.9 		"/>
		<polygon class="st0" points="321.4,403.9 321.3,352.4 316.2,341.7 316.2,370.4 		"/>
		<polygon class="st0" points="311.4,420.7 306.6,377 309.1,382.2 312.4,396.8 316.2,410.3 		"/>
		<polygon class="st1" points="255.1,345.9 260.9,372.8 258.9,381.8 252.1,388.8 252.1,381.7 		"/>
		<path class="st1" d="M265.3,377c0,0-0.2-32.2,1.2-34.7c1.4-2.5,2.9-16.7,2.9-16.7h4.2l-4.1,49.7L265.3,377z"/>
		<polygon class="st1" points="210.9,337.5 209.7,308.9 212.3,295 217.7,346.4 		"/>
		<polygon class="st1" points="228.1,376.9 225.7,364.4 226.9,348.4 231.8,376.9 231.4,392.4 		"/>
		<polygon class="st0" points="343.5,323.9 346.2,295 348.5,315.6 		"/>
		<polygon class="st6" points="336.9,365.8 337.7,320.7 346.2,295 343.5,323.9 		"/>
		<polygon class="st6" points="329.2,397.9 336.2,370.4 331.7,397.9 327.7,400.3 		"/>
		<polygon class="st6" points="316.2,341.7 316.2,356.9 311.3,363.2 305.6,366.9 		"/>
		<polygon class="st6" points="277.2,382.3 269.6,375.3 273.4,372.6 277.2,370.4 		"/>
		<polygon class="st6" points="217.7,346.4 215.7,327.4 219.9,341.7 219.9,361 		"/>
		<polygon class="st1" points="358.7,298.7 357.8,313.7 355.2,330.4 351.1,323.3 348.5,315.6 		"/>
		<polygon class="st0" points="355.2,330.4 348.5,324.8 344.3,322.5 348.5,315.6 351.1,323.3 		"/>
		<polygon class="st1" points="245.9,308.6 247.1,321.8 244.9,346.2 235.3,357 231.8,361.4 230.4,350 226.6,325.6 226.6,298.3 		"/>
		<polygon class="st0" points="232.2,300.8 239.3,304.9 242.4,318.7 239.7,345.7 233.7,347.7 230.8,355.6 225.6,324.9 225.6,297 		
			"/>
	</g>
	<path class="st7" d="M219.9,270L219.9,270l49.6,28.7l47.6-26.4l0.2-1.2C260.8,247.8,219.9,270,219.9,270z"/>
</g>
<g id="polarbear">
	<path class="st8" d="M287.4,277.1c0,0-8.2,2.4-9.9,0.6c-6.4-0.1-10.6-0.3-10.6-0.3s-2.5,2.1-2.9,2.8c-0.4,0.8,0.1,2-1.5,1.6
		c-1.6-0.4-1.6-1.6-2.7-1.1s-3.8,3.3-3.3,3.7c0.5,0.5,2.3,0.2,3-0.2c0.6-0.4,0.9,0.2,1.5,0.6c0.6,0.4,1.7-0.2,1.7-0.2
		s1.4,0.8,2.1,1.2c0.7,0.5,3.6-0.1,4.4-0.8c0.7-0.7,2.5,1.5,6.8,2c4.3,0.5,8-2,8-2s0.9,2.2,2,2.2c0.1,0,0.1,0,0.2,0
		c1,2.3-1.2,4-1.4,4.8c-0.2,0.8,0.1,3,1.7,0.9c1.6-2.1,1.9-4.1,2.6-4.3c0.3-0.1,0.4-0.8,0.4-1.6c0.1,0.1,0.2,0.1,0.4,0.2
		c1.2,0.9-0.8,2.6,0,3.1c0.8,0.5,2.9-0.8,2.9-1.5c0-0.7,0.9-1.8-1.6-3.5c0-1.5,0.7-2.8,0.9-3c0.2-0.2,0.7-1.5,1-1.8s3.7-1.4,3.7-2.9
		C287.4,277.1,287.4,277.1,287.4,277.1z"/>
	<g>
		<path class="st9" d="M228.5,281.6c0,0,0-0.2,0.7-0.6c0.7-0.4,4-0.2,4-0.2l0.5-0.3v1.1l-0.5-0.3c0,0-0.6,0.1-0.9,0.3
			s-2.9,0.2-2.9,0.2L228.5,281.6z"/>
		<path class="st10" d="M233.9,278.7c0,0,0-0.1,0.4-0.4c0.4-0.2,2.4-0.1,2.4-0.1l0.3-0.2v0.6l-0.3-0.2c0,0-0.3,0.1-0.6,0.2
			c-0.2,0.1-1.7,0.1-1.7,0.1L233.9,278.7z"/>
		<path class="st9" d="M233.4,285.4c0,0,0-0.2,0.5-0.5c0.5-0.3,2.9-0.1,2.9-0.1l0.4-0.2l0,0.9l-0.4-0.3c0,0-0.4,0.1-0.7,0.2
			s-2.1,0.1-2.1,0.1L233.4,285.4z"/>
		<path class="st11" d="M240.7,278.9c0,0,0-0.1,0.4-0.5c0.4-0.4,2.5-0.4,2.5-0.4l0.3-0.3l0.1,0.8l-0.3-0.2c0,0-0.3,0.1-0.6,0.3
			c-0.2,0.2-1.8,0.3-1.8,0.3L240.7,278.9z"/>
		<path class="st10" d="M237.5,282c0,0,0-0.2,0.7-0.6c0.7-0.4,3.4-0.2,3.4-0.2l0.3-0.4v1.1l-0.5-0.3c0,0-0.3-0.1-0.7,0.3
			c-0.3,0.3-1.8,0.4-2,0.4c0,0,0,0-0.1,0L237.5,282z"/>
		<path class="st9" d="M238.6,282.2l-1.1-0.2c0,0,0.2-0.4,0.7-0.6c0.5,0.3,1.3,0.7,1.3,0.7S238.9,282.3,238.6,282.2z"/>
	</g>
	<polygon class="st12" points="245.9,308.6 244,299.9 228.2,290.8 221.5,283.8 223,295.6 239.3,304.9 	"/>
	<g id="water_overlay">
		<g class="st13">
			<polygon class="st14" points="219.9,270 223,295.6 269.5,322.5 269.5,298.6 			"/>
		</g>
		<polygon class="st15" points="269.5,298.6 269.5,322.5 312.4,297.8 317.3,271 		"/>
		<path class="st16" d="M219.9,268.8v1.2l49.6,28.7l47.8-27.6l0,0C269.9,239.9,219.9,268.8,219.9,268.8z"/>
	</g>
	<path class="st17" d="M269.6,260.4c0,0,23.9,0.7,47.7,10.6l-47.8,27.6L269.6,260.4z"/>
	<path class="st18" d="M287.4,277.1c0,0-0.5-0.6,1.8-1.6c2.3-1,2.9-1.7,3.2-2.1c0.3-0.3,3.6-0.6,3.9-0.4c0.2,0.2,0.4,0.9,1.7,0.9
		s2.5,0.1,2.2,0.6c-0.3,0.5-0.6,1.7-1.9,2.2c-1.3,0.5-1.5,0.6-1.5,0.9s-10.2-0.1-10.2-0.1L287.4,277.1z"/>
	<path class="st18" d="M266.9,277.3c0,0,2.2-2.2,4.6-1.5s6,1.8,6,1.8L266.9,277.3z"/>
	<polyline class="st19" points="299.3,274 300.2,274.1 300.2,274.5 300,275 299.3,274 	"/>
	<path class="st20" d="M292.1,275c0,0-0.7,0.3-0.2,0.7c0.6,0.3,0.9,0,1.2-0.3S291.7,276.2,292.1,275z"/>
	<path class="st21" d="M290.1,310.6c0,0,0.3-10.3,2.3-12.4s8.6-9,9.3-10.3c0.7-1.3,8.8-18.4,7-20.2c-0.7-0.7,8.5,3.2,8.5,3.2
		l-4.9,26.7L290.1,310.6z"/>
	<g id="eye">
		<circle cx="295.4" cy="274.6" r="0.3"/>
	</g>
</g>
<g id="snowman">
	<path class="st22" d="M333.9,231.5c-1.8-1.8-5-1.5-7.2,0.7s-2.5,5.4-0.7,7.2c1.1,1.1,2.8,1.4,4.5,1c-0.1,0.2-0.2,0.6-0.3,1.1
		c0,0.1,0.4,0.1,0.5,0c0.4-0.9,0.7-1.3,0.9-1.5c0.6-0.3,1.2-0.7,1.7-1.2C335.5,236.5,335.8,233.3,333.9,231.5z"/>
	<g>
		<g>
			<path class="st1" d="M327.1,226.6c-1.7,0-3.3,0.6-4.5,1.5c0.8-0.4,1.7-0.6,2.7-0.6c3,0,5.5,2.2,5.5,4.9s-2.5,4.9-5.5,4.9
				c-1.4,0-2.7-0.5-3.6-1.2c1.2,1.5,3.2,2.5,5.5,2.5c3.7,0,6.7-2.7,6.7-6S330.8,226.6,327.1,226.6z"/>
			<g>
				<path class="st23" d="M330.8,232.4c0-2.7-2.5-4.9-5.5-4.9c-1,0-1.9,0.2-2.7,0.6c-1.4,1.1-2.2,2.7-2.2,4.5c0,1.3,0.5,2.5,1.3,3.5
					c1,0.8,2.2,1.2,3.6,1.2C328.3,237.3,330.8,235.1,330.8,232.4z"/>
			</g>
		</g>
		<g>
			<path class="st1" d="M327,221.7c-1.3,0-2.4,0.4-3.3,1.1c0.6-0.3,1.2-0.5,2-0.5c2.2,0,4,1.6,4,3.6s-1.8,3.6-4,3.6
				c-1,0-2-0.3-2.7-0.9c0.9,1.1,2.4,1.9,4,1.9c2.7,0,4.9-2,4.9-4.4C332,223.7,329.8,221.7,327,221.7z"/>
			<g>
				<path class="st23" d="M329.7,226c0-2-1.8-3.6-4-3.6c-0.7,0-1.4,0.2-2,0.5c-1,0.8-1.7,2-1.7,3.3c0,1,0.3,1.8,0.9,2.6
					c0.7,0.6,1.6,0.9,2.7,0.9C327.9,229.7,329.7,228,329.7,226z"/>
			</g>
		</g>
		<g>
			<path class="st1" d="M326.8,217.7c-1,0-2,0.4-2.7,0.9c0.5-0.2,1-0.4,1.6-0.4c1.8,0,3.3,1.3,3.3,3c0,1.6-1.5,3-3.3,3
				c-0.8,0-1.6-0.3-2.2-0.8c0.7,0.9,1.9,1.5,3.3,1.5c2.2,0,4.1-1.6,4.1-3.6C330.9,219.3,329.1,217.7,326.8,217.7z"/>
			<g>
				<path class="st23" d="M330,221.3c0-1.8-1.7-3.2-3.8-3.2c-0.7,0-1.3,0.1-1.8,0.4c-0.9,0.7-1.5,1.8-1.5,2.9c0,0.8,0.3,1.6,0.9,2.3
					c0.7,0.5,1.5,0.8,2.5,0.8C328.3,224.5,330,223.1,330,221.3z"/>
			</g>
		</g>
		<g>
			<path class="st24" d="M323.8,222.3c0.2-0.1,0.7-0.4,1.2-0.6c-0.1-0.2-0.2-0.4-0.2-0.5c0-0.1-0.5,0.2-0.5,0.2s-0.8,0.4-0.9,0.5
				c-0.1,0.1-1.3,0.5-1.6,0.7c-0.3,0.3-0.8,0.6-0.9,0.8c-0.1,0.1,0,0.4,0.1,0.4c0.4-0.2,0.7-0.5,0.9-0.7
				C322.1,222.8,323.5,222.4,323.8,222.3z"/>
			<path class="st25" d="M322.6,223.2c0.5,0,1.4-0.5,1.8-0.6c0.3-0.1,0.8-0.5,0.8-0.5s-0.1-0.2-0.3-0.5c-0.4,0.2-1,0.6-1.2,0.6
				c-0.3,0.1-1.7,0.5-2,0.9c-0.1,0.2-0.5,0.4-0.9,0.7c0,0,0,0,0,0C321.3,223.8,322.1,223.2,322.6,223.2z"/>
		</g>
	</g>
</g>
<g id="igloo_2_">
	<g id="igloo">
		<path class="st22" d="M253,228.8l13.6,8c0.2,0.1,0.3,0.1,0.5,0l5.8-3.9c0.1-0.1,0.2-0.1,0.3-0.1l17.1,2.9c0.1,0,0.2,0,0.3,0
			l15.7-6.4c0.1,0,0.2-0.1,0.2-0.2l3.8-7.4c0.1-0.2,0.1-0.4-0.1-0.5l-1.9-2.2c-0.1-0.1-0.3-0.2-0.4-0.2l-54.8,9.2
			C252.7,228,252.6,228.6,253,228.8z"/>
		<g>
			<g id="igloo_1_">
				<polygon class="st0" points="271.2,231.1 287.7,233.5 302.7,227.2 308,220.6 308,206.7 301.2,195 293,189.5 281.7,186.4 
					267.3,189.5 260.7,196.6 254.7,204.7 253.5,214.4 254.6,225.9 				"/>
				<polygon class="st1" points="288,214.9 288,206.4 283.6,190.7 281.7,186.4 279.6,203.8 280.6,219.8 279.6,232.3 287.7,233.5 
					289,221.1 				"/>
				<polygon class="st0" points="266.4,229.6 263.1,215.3 264.8,205.5 271.2,195.6 273.3,189.5 281.7,186.4 279.6,203.8 
					280.6,219.8 279.6,232.3 271.2,231.1 				"/>
				<polygon class="st26" points="302.7,227.2 303.6,210.7 300.2,201.6 292.2,193.1 281.7,186.4 293,189.5 301.2,195 308,206.7 
					308,220.6 				"/>
				<polygon class="st6" points="281.7,186.4 292.2,193.1 300.2,201.6 303.6,210.7 302.7,227.2 287.7,233.5 289,221.1 288,214.9 
					288,206.4 				"/>
			</g>
			<g id="door">
				<polygon class="st27" points="251.2,228.3 264,235 264,224.8 260.6,219.8 253.8,217.5 251.2,219.8 				"/>
				<polygon class="st0" points="271.2,231.1 264,235 264,224.8 260.6,219.8 253.8,217.5 260.7,213.5 268.3,216.8 271.2,221.8 				
					"/>
				
					<radialGradient id="SVGID_1_" cx="256.5753" cy="229.6431" r="9.8563" fx="266.221" fy="231.6696" gradientUnits="userSpaceOnUse">
					<stop  offset="0.2741" style="stop-color:#B9C1C5"/>
					<stop  offset="1" style="stop-color:#929EA5;stop-opacity:0.6"/>
				</radialGradient>
				<polygon class="st28" points="252.7,229.1 261.6,233.8 261.6,226.1 259.4,222.4 254.7,220.6 253,222.4 				"/>
				<polygon class="st1" points="264,224.8 271.2,221.8 271.2,231.1 264,235 				"/>
				<polygon class="st27" points="260.6,219.8 253.8,217.5 260.7,213.5 268.3,216.8 				"/>
			</g>
			<path class="st29" d="M294.8,209l2,4.3c0,0,6.4-1.2,8.2-6.6c-1.5-2.5-2.3-4.1-2.3-4.1S299.9,207.8,294.8,209z"/>
			<path class="st29" d="M301.7,211.7c0,0,1.6,2.8,1,5.2c-3,2.7-8.3,3.6-10.1,3.6c-0.7-2-0.7-4.1-0.4-5.3
				C293.9,215.3,298.1,214.2,301.7,211.7z"/>
			<path class="st30" d="M294.1,209.2l1.9,4.6c0,0-8.6,3.2-14.3,2.2c0-2.1-0.1-4.9-0.1-4.9S289,211.6,294.1,209.2z"/>
			<path class="st31" d="M271.7,197.6c0,0-0.4,2.3-1.8,3.5c-3,0.1-6.4-1.7-7.5-2.6c0.5-1.5,1.5-2.7,2.2-3.2
				C265.5,196,268.4,197.3,271.7,197.6z"/>
			<path class="st31" d="M273.6,224.3v3c0,0,4.9,1.7,9.5,1.7c0-3.1,0-4.7,0-4.7s-8.2-0.1-9.5-1.4V224.3z"/>
			<path class="st32" d="M289.8,197.1c1.3-0.3,5-1.7,6.8-4.1c0-0.5-0.1-0.9-0.2-1.4l-2.1-1.4c-2.1,1.8-4.5,2.9-5.6,3.1
				C288.7,194.2,289,195.8,289.8,197.1z"/>
			<path class="st31" d="M268.7,192.3c-1-0.3-2-0.7-2.9-1.1l-2.5,2.7c2.4,1.2,4.5,1.9,4.5,1.9L268.7,192.3z"/>
		</g>
		
			<radialGradient id="SVGID_2_" cx="256.5753" cy="230.7298" r="8.911" fx="265.2959" fy="232.5619" gradientUnits="userSpaceOnUse">
			<stop  offset="0.2741" style="stop-color:#B9C1C5"/>
			<stop  offset="1" style="stop-color:#929EA5;stop-opacity:0.6"/>
		</radialGradient>
		<polygon class="st33" points="252.7,229.1 260.4,224.1 261.6,226.1 261.6,233.8 		"/>
	</g>
	<g id="water">
		<g class="st34">
			<path class="st14" d="M245.9,306.8c1.1,1.1,1.3,17.1,1.3,17.1l-4.8,24.5v63.3c0,0.3,0.1,1,0.3,1.2l0.6,0.3
				c0.5,0.3,1.2-0.1,1.2-0.7l-1-64l6-22.9l-0.6-15.1L245.9,306.8z"/>
		</g>
		<g class="st34">
			<path class="st14" d="M310.8,429.9L310.8,429.9c0.8-0.2,1.4-1,1.3-1.9l-7.1-62.3c0,0-8.4-13.9-8.4-15.6c0-1.7-4.2-25.5-4.2-25.5
				l-2.3-14l-4.7,2.7l10.3,39.1l8,13.3l6.4,63.7C310.2,429.8,310.5,430,310.8,429.9z"/>
		</g>
		<g class="st34">
			<path class="st14" d="M316.4,426.1c0,0.6,0.7,0.8,1.1,0.5l0.9-0.8c0.2-0.3,0.2-0.7,0.2-1l-2.5-42.7c0,0,0-0.1,0-0.1l0.1-37.7
				l-1.9,14.7c-0.1,0.4-0.2,0.8-0.6,1.1l-0.7,0.7c-0.4,0.4-0.6,1-0.6,1.6l2.3,20.5L316.4,426.1z"/>
		</g>
	</g>
</g>
</svg>
